<?xml version="1.0" encoding="utf-8"?>
<!-- Generator: Adobe Illustrator 19.2.1, SVG Export Plug-In . SVG Version: 6.00 Build 0)  -->
<svg version="1.1" id="Layer_1" xmlns="http://www.w3.org/2000/svg" xmlns:xlink="http://www.w3.org/1999/xlink" x="0px" y="0px"
	 viewBox="0 0 90 90" style="enable-background:new 0 0 90 90;" xml:space="preserve">
<style type="text/css">	
</style>
<g>
	<g>
		<g>
			<path class="icon_draw" d="M47.7,44c0.1,0.2,0.4,0.4,0.6,0.4c0.1,0,0.2,0,0.3-0.1c0,0,4-2,5.9-2.6c0.4-0.1,0.5-0.5,0.4-0.8
				c-0.1-0.4-0.5-0.5-0.8-0.4c-2,0.6-5.9,2.6-6.1,2.7C47.7,43.2,47.6,43.6,47.7,44z"/>
			<path class="icon_draw" d="M48.3,36.3c0.1,0,0.2,0,0.3-0.1c0,0,4-2,5.9-2.6c0.4-0.1,0.5-0.5,0.4-0.8c-0.1-0.4-0.5-0.5-0.8-0.4
				c-2,0.6-5.9,2.6-6.1,2.7c-0.3,0.2-0.5,0.6-0.3,0.9C47.9,36.2,48.1,36.3,48.3,36.3z"/>
			<path class="icon_draw" d="M64.3,35c-0.4,0-0.7,0.3-0.7,0.7v26c0,1.1-0.9,2-2,2h-16v-1.5c1-0.3,3.5-1.1,6-1.1c5.8,0,9.8,1.3,9.8,1.3
				c0.2,0.1,0.4,0,0.6-0.1c0.2-0.1,0.3-0.3,0.3-0.5V32.3c0-0.3-0.2-0.6-0.5-0.7c0,0-0.5-0.1-1.4-0.3c-0.4-0.1-0.7,0.2-0.8,0.5
				c-0.1,0.4,0.2,0.7,0.5,0.8c0.3,0.1,0.6,0.1,0.8,0.2v27.9c-1.5-0.4-4.9-1.1-9.3-1.1c-2.9,0-5.8,1-6.6,1.3c-0.8-0.3-3.2-1.3-6-1.3
				c-4.6,0-8.4,0.8-10,1.1v-28c1.3-0.3,5.3-1.2,10-1.2c2.4,0,4.5,0.8,5.3,1.1V59c0,0.2,0.1,0.5,0.3,0.6c0.2,0.1,0.5,0.1,0.7,0
				c0.1,0,6.7-4,12.5-5.9c0.3-0.1,0.5-0.3,0.5-0.6V25.7c0-0.2-0.1-0.4-0.3-0.5C57.9,25,57.6,25,57.4,25c-5.3,2-10.7,5.4-10.8,5.4
				c-0.3,0.2-0.4,0.6-0.2,0.9c0.2,0.3,0.6,0.4,0.9,0.2c0,0,4.7-3,9.6-4.9v25.9c-4.6,1.6-9.3,4.2-11.3,5.3V32.3
				c0-0.3-0.1-0.5-0.4-0.6c-0.1-0.1-2.8-1.4-6.3-1.4c-6,0-10.7,1.3-10.8,1.4c-0.3,0.1-0.5,0.3-0.5,0.6v29.3c0,0.2,0.1,0.4,0.3,0.5
				c0.1,0.1,0.3,0.1,0.4,0.1c0.1,0,0.1,0,0.2,0c0,0,4.7-1.3,10.5-1.3c2.4,0,4.5,0.8,5.3,1.1v1.6h-16c-1.1,0-2-0.9-2-2v-26
				c0-0.4-0.3-0.7-0.7-0.7S25,35.3,25,35.7v26c0,1.8,1.5,3.3,3.3,3.3h33.3c1.8,0,3.3-1.5,3.3-3.3v-26C65,35.3,64.7,35,64.3,35z"/>
			<path class="icon_draw" d="M47.7,40c0.1,0.2,0.4,0.4,0.6,0.4c0.1,0,0.2,0,0.3-0.1c0,0,4-2,5.9-2.6c0.4-0.1,0.5-0.5,0.4-0.8
				c-0.1-0.4-0.5-0.5-0.8-0.4c-2,0.6-5.9,2.6-6.1,2.7C47.7,39.2,47.6,39.6,47.7,40z"/>
			<path class="icon_draw" d="M47.7,48c0.1,0.2,0.4,0.4,0.6,0.4c0.1,0,0.2,0,0.3-0.1c0,0,4-2,5.9-2.6c0.4-0.1,0.5-0.5,0.4-0.8
				c-0.1-0.4-0.5-0.5-0.8-0.4c-2,0.6-5.9,2.6-6.1,2.7C47.7,47.2,47.6,47.6,47.7,48z"/>
			<path class="icon_draw" d="M41.2,37.4c-4.1-1-8.8,0.3-9,0.3c-0.4,0.1-0.6,0.5-0.5,0.8c0.1,0.3,0.3,0.5,0.6,0.5c0.1,0,0.1,0,0.2,0
				c0,0,4.5-1.2,8.3-0.3c0.4,0.1,0.7-0.1,0.8-0.5C41.7,37.8,41.5,37.5,41.2,37.4z"/>
			<path class="icon_draw" d="M41.2,41.4c-4.1-1-8.8,0.3-9,0.3c-0.4,0.1-0.6,0.5-0.5,0.8c0.1,0.3,0.3,0.5,0.6,0.5c0.1,0,0.1,0,0.2,0
				c0,0,4.5-1.2,8.3-0.3c0.4,0.1,0.7-0.1,0.8-0.5C41.7,41.8,41.5,41.5,41.2,41.4z"/>
			<path class="icon_draw" d="M47.7,52c0.1,0.2,0.4,0.4,0.6,0.4c0.1,0,0.2,0,0.3-0.1c0,0,4-2,5.9-2.6c0.4-0.1,0.5-0.5,0.4-0.8
				c-0.1-0.4-0.5-0.5-0.8-0.4c-2,0.6-5.9,2.6-6.1,2.7C47.7,51.2,47.6,51.6,47.7,52z"/>
			<path class="icon_draw" d="M41.2,45.4c-4.1-1-8.8,0.3-9,0.3c-0.4,0.1-0.6,0.5-0.5,0.8c0.1,0.3,0.3,0.5,0.6,0.5c0.1,0,0.1,0,0.2,0
				c0,0,4.5-1.2,8.3-0.3c0.4,0.1,0.7-0.1,0.8-0.5C41.7,45.8,41.5,45.5,41.2,45.4z"/>
			<path class="icon_draw" d="M41.2,53.4c-4.1-1-8.8,0.3-9,0.3c-0.4,0.1-0.6,0.5-0.5,0.8c0.1,0.3,0.3,0.5,0.6,0.5c0.1,0,0.1,0,0.2,0
				c0,0,4.5-1.2,8.3-0.3c0.4,0.1,0.7-0.1,0.8-0.5C41.7,53.8,41.5,53.5,41.2,53.4z"/>
			<path class="icon_draw" d="M41.2,49.4c-4.1-1-8.8,0.3-9,0.3c-0.4,0.1-0.6,0.5-0.5,0.8c0.1,0.3,0.3,0.5,0.6,0.5c0.1,0,0.1,0,0.2,0
				c0,0,4.5-1.2,8.3-0.3c0.4,0.1,0.7-0.1,0.8-0.5C41.7,49.8,41.5,49.5,41.2,49.4z"/>
		</g>
	</g>
</g>
<circle class="circle" cx="45" cy="45" r="44.3"/>
</svg>
