<?xml version="1.0" encoding="utf-8"?>
<!-- Generator: Adobe Illustrator 19.2.1, SVG Export Plug-In . SVG Version: 6.00 Build 0)  -->
<svg version="1.1" id="Capa_1" xmlns="http://www.w3.org/2000/svg" xmlns:xlink="http://www.w3.org/1999/xlink" x="0px" y="0px"
	 viewBox="0 0 40 40" style="enable-background:new 0 0 40 40;" xml:space="preserve">
<style type="text/css">
	.st0{fill:#FB5E1C;}
</style>
<g>
	<g>
		<path class="st0" d="M31.6,24.8c-0.8-0.9-1.8-1.3-2.9-1.3c-1,0-2,0.4-2.9,1.3l-2.7,2.7c-0.2-0.1-0.4-0.2-0.7-0.3
			c-0.3-0.2-0.6-0.3-0.8-0.4c-2.5-1.6-4.8-3.7-7-6.3c-1.1-1.3-1.8-2.5-2.3-3.6c0.7-0.6,1.3-1.3,2-1.9c0.2-0.2,0.5-0.5,0.7-0.7
			c1.8-1.8,1.8-4.1,0-5.9l-2.3-2.3c-0.3-0.3-0.5-0.5-0.8-0.8c-0.5-0.5-1-1.1-1.6-1.6C9.6,2.7,8.7,2.3,7.6,2.3s-2,0.4-2.9,1.2
			c0,0,0,0,0,0L1.9,6.4C0.8,7.5,0.2,8.8,0,10.4c-0.2,2.5,0.5,4.8,1.1,6.3c1.4,3.7,3.4,7.1,6.5,10.8c3.7,4.4,8.2,7.9,13.3,10.4
			c1.9,0.9,4.5,2,7.4,2.2c0.2,0,0.4,0,0.5,0c2,0,3.6-0.7,4.9-2.1c0,0,0,0,0,0c0.4-0.5,0.9-1,1.5-1.5c0.4-0.3,0.7-0.7,1.1-1.1
			c0.8-0.9,1.3-1.9,1.3-2.9c0-1-0.4-2.1-1.3-2.9L31.6,24.8z M34.7,33.7C34.6,33.7,34.6,33.7,34.7,33.7c-0.3,0.4-0.7,0.7-1,1
			c-0.5,0.5-1.1,1.1-1.6,1.7c-0.9,0.9-1.9,1.3-3.2,1.3c-0.1,0-0.3,0-0.4,0c-2.5-0.2-4.8-1.1-6.6-2c-4.8-2.3-9-5.6-12.5-9.8
			c-2.9-3.5-4.8-6.7-6.1-10.1c-0.8-2.1-1.1-3.7-0.9-5.3c0.1-1,0.5-1.8,1.2-2.5l2.9-2.9c0.4-0.4,0.9-0.6,1.3-0.6c0.5,0,1,0.3,1.2,0.6
			c0,0,0,0,0,0c0.5,0.5,1,1,1.5,1.5C10.7,7,11,7.2,11.2,7.5l2.3,2.3c0.9,0.9,0.9,1.7,0,2.6c-0.2,0.2-0.5,0.5-0.7,0.7
			c-0.7,0.7-1.4,1.4-2.1,2.1c0,0,0,0,0,0c-0.7,0.7-0.6,1.4-0.4,1.9c0,0,0,0.1,0,0.1c0.6,1.5,1.4,2.8,2.7,4.5l0,0
			c2.3,2.9,4.8,5.1,7.5,6.8c0.3,0.2,0.7,0.4,1,0.6c0.3,0.2,0.6,0.3,0.8,0.4c0,0,0.1,0,0.1,0.1c0.3,0.1,0.6,0.2,0.8,0.2
			c0.7,0,1.1-0.4,1.3-0.6l2.9-2.9c0.3-0.3,0.7-0.6,1.3-0.6c0.5,0,1,0.3,1.2,0.6c0,0,0,0,0,0l4.7,4.7C35.5,31.9,35.5,32.8,34.7,33.7z
			"/>
		<path class="st0" d="M21.6,9.5c2.2,0.4,4.2,1.4,5.8,3s2.6,3.6,3,5.8c0.1,0.6,0.6,0.9,1.1,0.9c0.1,0,0.1,0,0.2,0
			c0.6-0.1,1-0.7,0.9-1.3c-0.5-2.7-1.7-5.1-3.7-7.1S24.7,7.7,22,7.2c-0.6-0.1-1.2,0.3-1.3,0.9C20.6,8.8,21,9.4,21.6,9.5z"/>
		<path class="st0" d="M40,17.6c-0.8-4.4-2.8-8.4-6-11.6s-7.2-5.3-11.6-6c-0.6-0.1-1.2,0.3-1.3,0.9c-0.1,0.6,0.3,1.2,0.9,1.3
			c3.9,0.7,7.5,2.5,10.4,5.4c2.9,2.9,4.7,6.5,5.4,10.4c0.1,0.6,0.6,0.9,1.1,0.9c0.1,0,0.1,0,0.2,0C39.7,18.9,40.1,18.3,40,17.6z"/>
	</g>
</g>
</svg>
