<?xml version="1.0" encoding="utf-8"?>
<!-- Generator: Adobe Illustrator 19.2.1, SVG Export Plug-In . SVG Version: 6.00 Build 0)  -->
<svg version="1.1" id="Capa_1" xmlns="http://www.w3.org/2000/svg" xmlns:xlink="http://www.w3.org/1999/xlink" x="0px" y="0px"
	 viewBox="0 0 40 40" style="enable-background:new 0 0 40 40;" xml:space="preserve">
<style type="text/css">
	.st0{fill:none;stroke:#FB5E1C;stroke-width:2;stroke-miterlimit:10;}
</style>
<g>
	<path class="st0" d="M16.7,8.1C8.5,8.1,1.8,14.8,1.8,23c0,2.8,0.8,5.4,2.1,7.6l-2.6,7.8l8.5-2.2c0,0,0,0,0,0c0,0,0,0,0,0l4.1-0.9
		c0.3-0.1,0.7,0.1,0.8,0.5c0.1,0.3-0.1,0.7-0.5,0.8l-2.3,0.5c1.5,0.5,3.2,0.8,4.9,0.8C25,38,31.6,31.3,31.6,23S25,8.1,16.7,8.1z"/>
	<path class="st0" d="M16.7,8.1c8.2,0,14.9,6.7,14.9,14.9c0,2.2-0.5,4.3-1.3,6.1l8.4,2.2l-2.6-7.8c1.3-2.2,2.1-4.8,2.1-7.6
		C38.2,7.7,31.5,1,23.3,1C17.2,1,12,4.7,9.6,9.9C11.7,8.8,14.1,8.1,16.7,8.1z"/>
	<path class="st0" d="M20.6,19.1h-7.1c-0.4,0-0.6-0.3-0.6-0.6c0-0.4,0.3-0.6,0.6-0.6h7.1c0.4,0,0.6,0.3,0.6,0.6
		C21.3,18.8,21,19.1,20.6,19.1z"/>
	<path class="st0" d="M23.9,23.6H10.3c-0.4,0-0.6-0.3-0.6-0.6s0.3-0.6,0.6-0.6h13.6c0.4,0,0.6,0.3,0.6,0.6S24.2,23.6,23.9,23.6z"/>
	<path class="st0" d="M23.9,28.2H10.3c-0.4,0-0.6-0.3-0.6-0.6s0.3-0.6,0.6-0.6h13.6c0.4,0,0.6,0.3,0.6,0.6S24.2,28.2,23.9,28.2z"/>
</g>
</svg>
