<?xml version="1.0" encoding="utf-8"?>
<!-- Generator: Adobe Illustrator 19.2.1, SVG Export Plug-In . SVG Version: 6.00 Build 0)  -->
<svg version="1.1" id="Layer_1" xmlns="http://www.w3.org/2000/svg" xmlns:xlink="http://www.w3.org/1999/xlink" x="0px" y="0px"
	 viewBox="0 0 90 90" style="enable-background:new 0 0 90 90;" xml:space="preserve">
<style type="text/css">
	.st0{fill:none;stroke:#F15F24;stroke-width:2;stroke-miterlimit:10;}
	.st1{fill:#F16025;}
</style>
<g>
	<ellipse class="circle" cx="45" cy="45.1" rx="44" ry="43.9"/>
	<g>
		<g>
			<g>
				<path class="icon_draw" d="M59.7,60.4c-0.2-0.4-0.7-0.6-1.1-0.5L51.2,63c-1.5,0.6-3.2,0.7-4.7,0.2l-17.4-5.7c-1.1-0.4-2.3-0.3-3.3,0.2
					l-0.7,0.3c-0.4,0.2-0.6,0.7-0.4,1.1c0.2,0.4,0.7,0.6,1.1,0.4l0.7-0.3c0.7-0.3,1.4-0.3,2.1-0.1L46,64.7c0.9,0.3,1.7,0.4,2.6,0.4
					c1.1,0,2.2-0.2,3.2-0.6l7.4-3.1C59.7,61.3,59.9,60.8,59.7,60.4z"/>
			</g>
		</g>
		<g>
			<g>
				<path class="icon_draw" d="M70.7,52.4L70.7,52.4c-0.8-1.8-2.7-2.7-4.5-2.3c0.2-0.7,0.2-1.5-0.1-2.3c-0.3-0.8-1-1.5-1.8-1.8
					c0,0,0,0,0,0c-0.7-0.3-1.4-0.3-2.1-0.1v-5.4c0-0.5-0.4-0.8-0.8-0.8c-0.5,0-0.8,0.4-0.8,0.8v11.6l-7.4,2.6
					c-0.8,0.3-1.7,0.3-2.5,0l-8.8-3v-3.4l8.4,2.8c1.7,0.6,3.6-0.2,4.3-1.8h1.1c0.5,0,0.8-0.4,0.8-0.8v-9.7c0-0.5-0.4-0.8-0.8-0.8
					h-8.8c-0.5,0-0.8,0.4-0.8,0.8v3.4l-4.1-1.6v-6.2l9.4-6.1l9.4,6.1v3.4c0,0.5,0.4,0.8,0.8,0.8c0.5,0,0.8-0.4,0.8-0.8v-2.3l2.3,1.5
					c0.1,0.1,0.3,0.1,0.5,0.1c0.3,0,0.5-0.1,0.7-0.4c0.3-0.4,0.2-0.9-0.2-1.2l-4.6-3V26c0-0.5-0.4-0.8-0.8-0.8h-5.1
					c-0.5,0-0.8,0.4-0.8,0.8v2.1l-2.4-1.6c-0.3-0.2-0.7-0.2-0.9,0l-13.8,9.1c-0.4,0.3-0.5,0.8-0.2,1.2c0.3,0.4,0.8,0.5,1.2,0.2
					l2.3-1.5v4.5l-2.9-1.1c-0.1,0-0.2-0.1-0.4-0.1c-3-1-6.4-0.6-9.2,1.2l-8.2,5.4c-0.4,0.3-0.5,0.8-0.2,1.2c0.3,0.4,0.8,0.5,1.2,0.2
					l8.2-5.4c2.3-1.5,5.2-1.9,7.7-1.1c0.1,0,0.2,0.1,0.3,0.1l15.3,5.8c0.5,0.2,0.8,0.5,1,1c0.2,0.5,0.2,1,0,1.4
					c-0.4,0.8-1.4,1.3-2.2,1l-9.7-3.3c-0.8-0.3-1.6-0.2-2.4,0.1c-0.9,0.4-1.6,1.2-1.9,2.2c-0.4,1.6,0.5,3.4,2.1,3.9l11.1,3.8
					c1.2,0.4,2.5,0.4,3.6,0l12.8-4.4c1.1-0.4,2.4,0.2,2.9,1.3l0,0c0.2,0.6,0.2,1.2,0,1.8c-0.2,0.6-0.7,1-1.3,1.2l-6.8,2.8
					c-0.4,0.2-0.6,0.7-0.5,1.1c0.1,0.3,0.5,0.5,0.8,0.5c0.1,0,0.2,0,0.3-0.1l6.8-2.8c1-0.4,1.8-1.2,2.2-2.2
					C71.2,54.5,71.1,53.4,70.7,52.4z M55.6,26.8H59v4.6l-3.4-2.2V26.8z M52.4,44.6l-5-1.9v-3.2h7.1V47c0-0.2-0.1-0.4-0.2-0.6
					C54,45.6,53.3,44.9,52.4,44.6z M40,51l-0.7-0.2c-0.8-0.3-1.2-1.1-1-1.9c0.1-0.5,0.5-0.9,0.9-1.1c0.3-0.1,0.5-0.1,0.8-0.1V51
					L40,51z M64.5,49.8l-0.4,1l-2,0.7v-3.8h0c0.4-0.3,1-0.3,1.5-0.1c0,0,0,0,0,0c0.4,0.2,0.7,0.5,0.9,0.9
					C64.7,48.9,64.7,49.3,64.5,49.8z"/>
			</g>
		</g>
	</g>
</g>
</svg>
