<?xml version="1.0" encoding="utf-8"?>
<!-- Generator: Adobe Illustrator 19.2.1, SVG Export Plug-In . SVG Version: 6.00 Build 0)  -->
<svg version="1.1" id="Layer_1" xmlns="http://www.w3.org/2000/svg" xmlns:xlink="http://www.w3.org/1999/xlink" x="0px" y="0px"
	 viewBox="0 0 90 90" style="enable-background:new 0 0 90 90;" xml:space="preserve">
<style type="text/css">
</style>
<g>
	<g>
		<g>
			<g>
				<path class="icon_draw" d="M60.1,60.1c-0.2-0.4-0.7-0.6-1.1-0.4l-7.3,3c-1.5,0.6-3.1,0.7-4.6,0.2l-17.1-5.6c-1.1-0.4-2.2-0.3-3.3,0.2
					L26,57.7c-0.4,0.2-0.6,0.7-0.4,1.1c0.2,0.4,0.7,0.6,1.1,0.4l0.7-0.3c0.7-0.3,1.4-0.3,2.1-0.1l17.1,5.6c0.8,0.3,1.7,0.4,2.6,0.4
					c1.1,0,2.2-0.2,3.2-0.6l7.3-3C60.1,61,60.3,60.5,60.1,60.1z"/>
			</g>
		</g>
		<g>
			<g>
				<path class="icon_draw" d="M70.9,52.3L70.9,52.3c-0.8-1.7-2.7-2.7-4.5-2.3c0.2-0.7,0.2-1.5-0.1-2.2c-0.3-0.8-1-1.4-1.8-1.8
					c0,0,0,0,0,0c-0.7-0.3-1.4-0.3-2.1-0.1v-5.3c0-0.5-0.4-0.8-0.8-0.8c-0.5,0-0.8,0.4-0.8,0.8V52l-7.3,2.5c-0.8,0.3-1.7,0.3-2.5,0
					l-8.6-3v-3.3l8.3,2.8c1.7,0.6,3.5-0.2,4.3-1.8h1c0.5,0,0.8-0.4,0.8-0.8v-9.6c0-0.5-0.4-0.8-0.8-0.8h-8.7c-0.5,0-0.8,0.4-0.8,0.8
					v3.3l-4-1.5v-6.2l9.2-6l9.2,6v3.4c0,0.5,0.4,0.8,0.8,0.8c0.5,0,0.8-0.4,0.8-0.8v-2.3l2.3,1.5c0.1,0.1,0.3,0.1,0.5,0.1
					c0.3,0,0.5-0.1,0.7-0.4c0.3-0.4,0.1-0.9-0.2-1.1l-4.6-3v-6.4c0-0.5-0.4-0.8-0.8-0.8h-5c-0.5,0-0.8,0.4-0.8,0.8v2L52,26.7
					c-0.3-0.2-0.6-0.2-0.9,0l-13.7,8.9c-0.4,0.3-0.5,0.8-0.2,1.1c0.3,0.4,0.8,0.5,1.2,0.2l2.3-1.5v4.4l-2.8-1.1
					c-0.1,0-0.2-0.1-0.4-0.1c-3-1-6.3-0.5-9,1.2l-8,5.3c-0.4,0.3-0.5,0.8-0.2,1.1c0.3,0.4,0.8,0.5,1.2,0.2l8-5.3
					c2.3-1.5,5.1-1.9,7.6-1c0.1,0,0.2,0.1,0.3,0.1l15.1,5.7c0.4,0.2,0.8,0.5,1,0.9c0.2,0.5,0.2,0.9,0,1.4c-0.4,0.8-1.3,1.3-2.2,1
					l-9.6-3.2c-0.8-0.3-1.6-0.2-2.3,0.1c-0.9,0.4-1.6,1.2-1.9,2.1c-0.4,1.6,0.5,3.3,2.1,3.9l11,3.8c1.1,0.4,2.4,0.4,3.6,0l12.6-4.4
					c1.1-0.4,2.4,0.2,2.8,1.2l0,0c0.2,0.6,0.2,1.2,0,1.7c-0.2,0.6-0.7,1-1.2,1.2l-6.7,2.8c-0.4,0.2-0.6,0.7-0.4,1.1
					c0.1,0.3,0.4,0.5,0.8,0.5c0.1,0,0.2,0,0.3-0.1l6.7-2.8c1-0.4,1.7-1.2,2.1-2.1C71.4,54.3,71.4,53.3,70.9,52.3z M56.1,27.1h3.3
					v4.5l-3.3-2.2V27.1z M52.9,44.6L48,42.7v-3.1h7V47c0-0.2-0.1-0.4-0.2-0.5C54.5,45.6,53.8,44.9,52.9,44.6z M40.6,50.9l-0.7-0.2
					c-0.8-0.3-1.2-1.1-1-1.9c0.1-0.5,0.5-0.8,0.9-1c0.3-0.1,0.5-0.1,0.8-0.1V50.9L40.6,50.9z M64.8,49.7l-0.4,1l-2,0.7v-3.7h0
					c0.4-0.3,1-0.3,1.5-0.1c0,0,0,0,0,0c0.4,0.2,0.7,0.5,0.9,0.9C65,48.8,65,49.3,64.8,49.7z"/>
			</g>
		</g>
	</g>
	<circle class="circle" cx="45.6" cy="45.1" r="44.4"/>
</g>
</svg>
