<?xml version="1.0" encoding="utf-8"?>
<!-- Generator: Adobe Illustrator 19.2.1, SVG Export Plug-In . SVG Version: 6.00 Build 0)  -->
<svg version="1.1" id="Capa_1" xmlns="http://www.w3.org/2000/svg" xmlns:xlink="http://www.w3.org/1999/xlink" x="0px" y="0px"
	 viewBox="0 0 32 40" style="enable-background:new 0 0 32 40;" xml:space="preserve">
<style type="text/css">
	.st0{fill:#FB5E1C;}
</style>
<g>
	<g>
		<path class="st0" d="M16,8.1c-4.6,0-8.3,3.7-8.3,8.3s3.7,8.3,8.3,8.3s8.3-3.7,8.3-8.3S20.6,8.1,16,8.1z M16,22.7
			c-3.5,0-6.3-2.8-6.3-6.3s2.8-6.3,6.3-6.3s6.3,2.8,6.3,6.3S19.5,22.7,16,22.7z"/>
		<path class="st0" d="M16,0.2c-0.2,0-0.4,0-0.6,0C7.4,0.5,0.8,6.7,0.1,14.6c-0.1,1.5-0.1,3.1,0.2,4.6c0,0,0,0.2,0.1,0.5
			c0.2,1.1,0.6,2.2,1.1,3.1c1.6,3.9,5.2,9.9,13.1,16.4c0.4,0.3,0.9,0.5,1.5,0.5c0.5,0,1.1-0.2,1.5-0.5c7.8-6.5,11.4-12.5,13.1-16.4
			c0.5-1,0.8-2.1,1.1-3.2c0-0.2,0.1-0.4,0.1-0.5c0.2-1,0.3-2,0.3-3C32,7.4,24.8,0.2,16,0.2z M29.7,18.9c0,0,0,0.2-0.1,0.4
			c-0.2,1-0.5,1.9-1,2.8c-1.6,3.7-5,9.4-12.5,15.6c-0.1,0.1-0.1,0.1-0.2,0.1c0,0-0.1,0-0.2-0.1C8.3,31.5,4.8,25.8,3.3,22.1
			c-0.4-0.9-0.7-1.8-0.9-2.8c0-0.2-0.1-0.3-0.1-0.4c0,0,0,0,0,0c-0.3-1.3-0.3-2.7-0.2-4c0.7-7,6.4-12.4,13.4-12.6
			C23.4,1.9,30,8.3,30,16.2C30,17.1,29.9,18,29.7,18.9z"/>
	</g>
</g>
</svg>
