<?xml version="1.0" encoding="utf-8"?>
<!-- Generator: Adobe Illustrator 19.2.1, SVG Export Plug-In . SVG Version: 6.00 Build 0)  -->
<svg version="1.1" id="Layer_1" xmlns="http://www.w3.org/2000/svg" xmlns:xlink="http://www.w3.org/1999/xlink" x="0px" y="0px"
	 viewBox="0 0 90 90" style="enable-background:new 0 0 90 90;" xml:space="preserve">
<style type="text/css">
	.st0{fill:none;stroke:#F15F24;stroke-width:2;stroke-miterlimit:10;}
	.st1{fill:#F16025;}
</style>
<g>
	<ellipse class="circle" cx="45" cy="45.2" rx="44" ry="43.9"/>
	<g>
		<g>
			<rect x="33.1" y="33.9" class="icon_draw" width="23.8" height="5.6"/>
			<rect x="42.1" y="25.2" class="icon_draw" width="5.8" height="23.2"/>
		</g>
		<g>
			<path class="icon_draw" d="M48,65.2c0,0-3.1-5.9,2.9-10s7.6-6.4,7.6-6.4s3.3-0.9,1.9,1.8c-1,1.7-2.3,3.3-3.8,4.5c0,0,4.5-0.9,5.7-4.5
				c1.2-3.6,0-5.7,2.9-6.4c0,0,1.4,6.8-2.9,10.9s-9.3,5.7-9.6,10H48z"/>
			<path class="icon_draw" d="M41.9,65.2c0,0,3.1-5.9-2.9-10s-7.6-6.4-7.6-6.4s-3.3-0.9-1.9,1.8c1,1.7,2.3,3.3,3.8,4.5
				c0,0-4.5-0.9-5.7-4.5s0-5.7-2.9-6.4c0,0-1.4,6.8,2.9,10.9s9.3,5.7,9.6,10H41.9z"/>
		</g>
	</g>
</g>
</svg>
