<?xml version="1.0" encoding="utf-8"?>
<!-- Generator: Adobe Illustrator 19.2.1, SVG Export Plug-In . SVG Version: 6.00 Build 0)  -->
<svg version="1.1" id="Layer_1" xmlns="http://www.w3.org/2000/svg" xmlns:xlink="http://www.w3.org/1999/xlink" x="0px" y="0px"
	 viewBox="0 0 90 90" style="enable-background:new 0 0 90 90;" xml:space="preserve">
<style type="text/css">
	.st0{fill:none;stroke:#F15F24;stroke-width:2;stroke-miterlimit:10;}
	.st1{fill:#F15F24;}
</style>
<g>
	<ellipse class="circle" cx="45" cy="45.2" rx="44" ry="43.9"/>
	<g>
		<g>
			<path class="icon_draw" d="M60.1,54.4c1.6-2.7,2.4-5.8,2.4-8.9c0-0.5-0.4-0.8-0.8-0.8h-0.8c-0.3-1-1.2-1.8-2.2-2.1
				c-0.3-1.3-1.5-2.4-2.9-2.4c-0.1,0-0.2,0-0.3,0c-0.1-0.3-0.4-0.6-0.6-0.9l6.5-9.7c0.3-0.4,0.2-0.9-0.2-1.1
				c-0.4-0.3-0.9-0.2-1.1,0.2l-6.6,9.8c-0.2,0-0.4-0.1-0.7-0.1c-0.2,0-0.5,0-0.7,0.1c-0.1-0.2-0.3-0.3-0.4-0.5l4.9-11.3
				c0.2-0.4,0-0.9-0.4-1.1c-0.4-0.2-0.9,0-1.1,0.4l-4.9,11.2c-0.2,0-0.3,0-0.5,0c-0.4,0-0.8,0.1-1.2,0.2c-0.5-0.6-1.3-0.9-2.1-0.9
				c-0.5,0-1,0.1-1.5,0.4c-0.4-0.3-1-0.4-1.5-0.4c-0.8,0-1.6,0.3-2.1,0.9c-0.4-0.2-0.8-0.2-1.2-0.2c-1,0-1.9,0.5-2.4,1.2
				c-0.2-0.1-0.5-0.1-0.7-0.1c-1.2,0-2.2,0.7-2.7,1.8c-0.1,0-0.2,0-0.3,0c-1.4,0-2.6,1-2.9,2.4c-1.1,0.2-1.9,1-2.2,2.1h-0.8
				c-0.5,0-0.8,0.4-0.8,0.8c0,3.1,0.8,6.2,2.4,8.9c1.1,1.8,2.5,3.5,4.1,4.8h-3.1c-0.5,0-0.8,0.4-0.8,0.8v0.2c0,2.4,2,4.4,4.4,4.4h21
				c2.4,0,4.4-2,4.4-4.4V60c0-0.5-0.4-0.8-0.8-0.8H56C57.6,57.9,59,56.3,60.1,54.4z M31.8,44.2c0,0,0.1,0,0.1,0
				c0.2,0,0.5-0.1,0.6-0.2c0.2-0.2,0.3-0.4,0.2-0.6c0,0,0-0.1,0-0.1c0-0.7,0.6-1.3,1.3-1.3c0.2,0,0.4,0,0.5,0.1
				c0.2,0.1,0.5,0.1,0.7,0c0.2-0.1,0.4-0.4,0.4-0.6c0.1-0.7,0.6-1.2,1.3-1.2c0.2,0,0.5,0.1,0.7,0.2c0.2,0.1,0.5,0.2,0.7,0.1
				c0.2-0.1,0.4-0.3,0.5-0.5c0.2-0.5,0.7-0.9,1.2-0.9c0.4,0,0.7,0.2,0.8,0.3c0.2,0.2,0.4,0.2,0.7,0.2c0.2,0,0.5-0.2,0.6-0.4
				c0.2-0.4,0.7-0.7,1.2-0.7c0.3,0,0.7,0.1,0.9,0.4c0.3,0.3,0.8,0.3,1.1,0c0.2-0.2,0.6-0.4,0.9-0.4c0.5,0,0.9,0.3,1.2,0.7
				c0.1,0.2,0.3,0.4,0.6,0.4c0.2,0,0.5,0,0.7-0.2c0.1-0.1,0.4-0.3,0.7-0.3l-1,2.3c-0.2,0.4,0,0.9,0.4,1.1c0.1,0,0.2,0.1,0.3,0.1
				c0.3,0,0.6-0.2,0.7-0.5l0.9-2.1c0,0,0,0,0,0c0.1,0.2,0.3,0.4,0.5,0.5c0.2,0.1,0.5,0.1,0.7-0.1c0.1,0,0.2-0.1,0.2-0.1l-1.5,2.2
				c-0.3,0.4-0.2,0.9,0.2,1.1c0.1,0.1,0.3,0.1,0.5,0.1c0.3,0,0.5-0.1,0.7-0.4l1.7-2.5c0.1,0.2,0.2,0.3,0.2,0.5
				c0,0.3,0.2,0.5,0.4,0.6c0.2,0.1,0.5,0.2,0.7,0c0.2-0.1,0.3-0.1,0.5-0.1c0.7,0,1.3,0.6,1.3,1.3c0,0,0,0.1,0,0.1
				c0,0.2,0.1,0.5,0.2,0.6c0.2,0.2,0.4,0.3,0.6,0.2c0,0,0.1,0,0.1,0c0.4,0,0.8,0.2,1,0.5H30.8C31.1,44.4,31.4,44.2,31.8,44.2z
				 M58.2,60.8c-0.3,1.2-1.4,2.2-2.7,2.2h-21c-1.3,0-2.4-0.9-2.7-2.2H58.2z M53.1,59.2H36.8c-2.3-1.4-4.2-3.3-5.6-5.6
				c-1.3-2.2-2-4.7-2.2-7.3h31.9c-0.1,2.6-0.9,5.1-2.2,7.3C57.4,55.9,55.4,57.8,53.1,59.2z"/>
		</g>
	</g>
</g>
</svg>
